<?xml version="1.0" standalone="no"?>
<!DOCTYPE svg PUBLIC "-//W3C//DTD SVG 20010904//EN"
 "http://www.w3.org/TR/2001/REC-SVG-20010904/DTD/svg10.dtd">
<svg version="1.0" xmlns="http://www.w3.org/2000/svg"
 width="192.000000pt" height="192.000000pt" viewBox="0 0 192.000000 192.000000"
 preserveAspectRatio="xMidYMid meet">

<g transform="translate(0.000000,192.000000) scale(0.100000,-0.100000)"
fill="#000000" stroke="none">
<path d="M867 1562 c-130 -169 -201 -397 -178 -579 l7 -61 -31 -6 c-61 -12
-72 -37 -77 -173 l-4 -123 33 0 c31 0 33 3 39 40 6 38 8 40 44 40 42 0 50 -11
50 -65 0 -18 3 -41 6 -50 6 -14 8 -14 25 1 18 16 19 16 19 -4 0 -12 -9 -27
-20 -34 -15 -10 -20 -24 -20 -60 0 -27 2 -48 5 -48 3 0 14 9 25 20 36 36 55
26 69 -32 6 -29 20 -71 30 -93 l18 -40 18 35 c11 19 24 60 30 90 13 64 32 74
70 36 l25 -25 0 54 c0 35 -5 57 -14 62 -7 4 -17 19 -21 33 l-7 25 25 -23 25
-23 7 70 7 71 39 0 c38 0 39 -1 45 -40 6 -37 9 -40 40 -40 l34 0 0 120 c0 115
-1 122 -25 145 -13 14 -34 25 -47 25 -23 0 -23 1 -24 138 -1 160 -20 247 -83
372 -36 73 -109 181 -130 194 -5 4 -30 -20 -54 -52z m89 -307 c57 -17 105 -61
130 -120 30 -72 21 -217 -23 -373 -22 -79 -27 -55 -7 35 20 91 23 239 5 303
-15 51 -73 115 -114 125 -66 17 -132 -18 -169 -88 -36 -68 -36 -305 -1 -404 4
-13 3 -15 -6 -8 -20 19 -51 186 -51 280 0 74 4 99 24 141 26 56 72 97 126 112
19 6 35 11 36 11 0 1 23 -6 50 -14z m-1 -95 c15 -16 17 -26 9 -48 -8 -22 -16
-28 -46 -30 -30 -3 -40 1 -54 22 -15 24 -15 28 0 51 20 31 65 33 91 5z m-45
-784 c-7 -7 -10 36 -10 135 0 80 3 149 8 153 4 4 8 -56 10 -135 2 -88 -1 -146
-8 -153z"/>
<path d="M80 660 c0 -19 7 -20 225 -20 218 0 225 1 225 20 0 19 -7 20 -225 20
-218 0 -225 -1 -225 -20z"/>
<path d="M1280 660 c0 -20 7 -20 280 -20 273 0 280 0 280 20 0 20 -7 20 -280
20 -273 0 -280 0 -280 -20z"/>
</g>
</svg>
