<?xml version="1.0" encoding="UTF-8"?><svg id="Layer_2" xmlns="http://www.w3.org/2000/svg" xmlns:xlink="http://www.w3.org/1999/xlink" viewBox="0 0 600 600"><defs><style>.cls-1{fill:url(#linear-gradient-2);}.cls-2{fill:#ce631b;}.cls-3{fill:url(#linear-gradient-6);}.cls-4{fill:url(#linear-gradient-5);}.cls-5{fill:url(#linear-gradient-7);}.cls-6{fill:url(#linear-gradient-3);}.cls-7{fill:url(#linear-gradient);}.cls-8{fill:url(#linear-gradient-4);}</style><linearGradient id="linear-gradient" x1="104.44" y1="495.56" x2="495.56" y2="104.44" gradientTransform="matrix(1, 0, 0, 1, 0, 0)" gradientUnits="userSpaceOnUse"><stop offset="0" stop-color="#f08229"/><stop offset=".55" stop-color="#f7ba5f"/><stop offset=".82" stop-color="#ef963a"/><stop offset="1" stop-color="#ec8528"/></linearGradient><linearGradient id="linear-gradient-2" x1="87.88" y1="512.12" x2="512.12" y2="87.88" gradientTransform="matrix(1, 0, 0, 1, 0, 0)" gradientUnits="userSpaceOnUse"><stop offset="0" stop-color="#f9a02c"/><stop offset=".6" stop-color="#fde271"/><stop offset=".67" stop-color="#fbd96a"/><stop offset=".77" stop-color="#f5c059"/><stop offset=".9" stop-color="#ed993d"/><stop offset="1" stop-color="#e67926"/></linearGradient><linearGradient id="linear-gradient-3" x1="150.84" y1="449.16" x2="449.16" y2="150.84" gradientTransform="matrix(1, 0, 0, 1, 0, 0)" gradientUnits="userSpaceOnUse"><stop offset="0" stop-color="#e67926"/><stop offset=".6" stop-color="#f7b95e"/><stop offset="1" stop-color="#e77826"/></linearGradient><linearGradient id="linear-gradient-4" x1="300" y1="510.94" x2="300" y2="89.06" gradientTransform="matrix(1, 0, 0, 1, 0, 0)" gradientUnits="userSpaceOnUse"><stop offset="0" stop-color="#db6a16"/><stop offset=".7" stop-color="#db6a16" stop-opacity="0"/></linearGradient><linearGradient id="linear-gradient-5" x1="206.74" y1="403" x2="393.25" y2="216.48" gradientTransform="matrix(1, 0, 0, 1, 0, 0)" gradientUnits="userSpaceOnUse"><stop offset="0" stop-color="#fef2a8"/><stop offset="1" stop-color="#fff"/></linearGradient><linearGradient id="linear-gradient-6" x1="168.11" y1="196.3" x2="485.02" y2="196.3" gradientTransform="matrix(1, 0, 0, 1, 0, 0)" gradientUnits="userSpaceOnUse"><stop offset="0" stop-color="#fff" stop-opacity=".3"/><stop offset="1" stop-color="#fef2a8" stop-opacity=".1"/></linearGradient><linearGradient id="linear-gradient-7" x1="300" y1="308.95" x2="300" y2="89.06" gradientTransform="matrix(1, 0, 0, 1, 0, 0)" gradientUnits="userSpaceOnUse"><stop offset=".1" stop-color="#db6a16" stop-opacity="0"/><stop offset="1" stop-color="#db6a16"/></linearGradient></defs><g id="Boards"><g><polygon class="cls-2" points="512.12 512.12 486.72 510.94 507.03 490.36 512.12 512.12"/><polygon class="cls-2" points="414.82 577.22 414.82 559.38 398.18 564.32 414.82 577.22"/><polygon class="cls-2" points="185.16 577.22 202.34 566.58 180.82 557.55 185.16 577.22"/><polyline class="cls-2" points="22.78 414.82 26.33 415.37 58.94 420.4 44.36 388.45 22.78 414.82"/><polygon class="cls-2" points="22.78 185.18 42.97 214.15 58.94 185.18 22.78 185.18"/><polygon class="cls-2" points="185.18 22.78 185.18 53.91 219.64 50.78 185.18 22.78"/><polygon class="cls-2" points="512.12 87.88 506.89 116.48 470.57 111.2 512.12 87.88"/><polygon class="cls-2" points="600 300 576.1 316.05 569.7 294.53 600 300"/><path class="cls-2" d="M576.57,311.72c0,8.41-.38,16.73-1.13,24.94-5.65,63.35-32.67,120.56-73.83,164.37-7.57,8.09-15.63,15.7-24.14,22.8-48.02,40.24-109.92,64.45-177.47,64.45-28.1,0-55.22-4.2-80.74-12-12.26-3.7-24.14-8.27-35.6-13.59-55.69-25.85-101.32-69.68-129.42-124.06h-.02c-5.02-9.68-9.47-19.71-13.31-30.02-11.3-30.14-17.46-62.79-17.46-96.89,0-29.51,4.62-57.94,13.22-84.61,3.82-12.02,8.48-23.67,13.87-34.9,28.55-59.53,77.79-107.25,138.4-133.83v-.02c6.23-2.74,12.61-5.25,19.1-7.52,28.76-10.17,59.72-15.68,91.97-15.68,71.16,0,136.01,26.86,185.02,70.99,8.44,7.59,16.41,15.73,23.86,24.3,38.62,44.48,63.3,101.41,67.15,163.99,.35,5.72,.54,11.46,.54,17.27Z"/><path class="cls-7" d="M576.57,300c0,8.41-.38,16.73-1.13,24.94-5.65,63.35-32.67,120.56-73.83,164.37-7.57,8.09-15.63,15.7-24.14,22.8-48.02,40.24-109.92,64.45-177.47,64.45-28.1,0-55.22-4.2-80.74-12-12.26-3.7-24.14-8.27-35.6-13.59-55.69-25.85-101.32-69.68-129.42-124.06h-.02c-5.02-9.68-9.47-19.71-13.31-30.02-11.3-30.14-17.46-62.79-17.46-96.89,0-29.51,4.62-57.94,13.22-84.61,3.82-12.02,8.48-23.67,13.87-34.9,28.55-59.53,77.79-107.25,138.4-133.83v-.02c6.23-2.74,12.61-5.25,19.1-7.52,28.76-10.17,59.72-15.68,91.97-15.68,71.16,0,136.01,26.86,185.02,70.99,8.44,7.59,16.41,15.73,23.86,24.3,38.62,44.48,63.3,101.41,67.15,163.99,.35,5.72,.54,11.46,.54,17.27Z"/><polygon class="cls-2" points="444.3 453.26 489.72 502.2 498.88 503.9 501.48 491.75 448.52 445.05 445.57 448.35 444.3 453.26"/><polygon class="cls-2" points="508 310.44 578.04 311.72 580.47 294.53 516.23 295.52 510.73 295.52 507.03 305.29 508 310.44"/><polygon class="cls-2" points="452.43 155.99 502.26 107.81 494.7 91.75 453.91 125.09 445.9 147.66 451.13 155.99 452.43 155.99"/><polygon class="cls-2" points="41.58 201.3 103.39 225.52 109.11 217.45 101.82 205.99 40.02 182.2 41.58 201.3"/><polygon class="cls-2" points="47.57 413.16 108.33 386.2 105.98 375.84 87.88 376.65 48.52 392.97 38.28 398.52 38.28 407.2 47.57 413.16"/><polygon class="cls-2" points="225.78 495.44 201.11 559.98 198.52 562.41 184.46 557.55 202.65 504.25 217.8 491.58 223.18 491.58 225.78 495.44"/><polygon class="cls-2" points="188.72 46.18 215.28 109.03 222.92 110.03 225.91 91.41 205.86 43.75 195.96 35.16 189.06 43.88 188.72 46.18"/><path class="cls-1" d="M300,0V300L192.82,41.26l-7.64-18.48C220.56,8.1,259.32,0,300,0ZM20,300H0c0,40.68,8.1,79.46,22.78,114.82l18.48-7.64,258.74-107.18H20Zm82.02,197.98v.02l-14.14,14.12c27.64,27.64,60.62,49.92,97.28,65.1l7.66-18.48,107.18-258.74L102.02,497.98Zm305.16,60.76l-107.18-258.74v300c40.68,0,79.44-8.1,114.82-22.78l-7.64-18.48Zm151.56-151.56l-258.74-107.18,197.98,197.98v.02l14.14,14.12c27.64-27.6,49.9-60.62,65.1-97.3l-18.48-7.64ZM414.84,22.78l-7.66,18.48-107.18,258.74,212.12-212.12c-27.64-27.64-60.62-49.92-97.28-65.1Zm162.38,162.4l-18.48,7.64-258.74,107.18h300c0-40.68-8.1-79.46-22.78-114.82Zm-535.96,7.64l258.74,107.18L102.02,102.02v-.02l-14.14-14.12c-27.64,27.6-49.9,60.62-65.1,97.3l18.48,7.64Z"/><circle class="cls-6" cx="300" cy="300" r="210.94"/><path class="cls-8" d="M300,89.06c-116.51,0-210.94,94.43-210.94,210.94s94.43,210.94,210.94,210.94,210.94-94.43,210.94-210.94-94.45-210.94-210.94-210.94Zm0,417.19c-113.93,0-206.25-92.32-206.25-206.25S186.07,93.75,300,93.75s206.25,92.32,206.25,206.25-92.34,206.25-206.25,206.25Z"/><path class="cls-2" d="M365.88,194.57s-.02-.02-.03-.03c-2.36,1.11-5.12,1.75-8.3,1.75-6.77,0-11.67-2.88-14.73-7.06-.11,.42-.21,.84-.34,1.27-3.38,10.71-12.06,13.22-20.86,22.89-2.34,2.57-13.88,15.27-14.5,31.79-.51,13.55,6.24,31.85,22.18,38.6,11.18,4.74,24.89,2.94,34.28-3.75,22.13-15.78,21.8-59.78,2.29-85.46Z"/><path class="cls-2" d="M292.88,245.18c-.62-16.53-12.16-29.22-14.5-31.79-8.69-9.56-17.26-12.14-20.72-22.52-3.09,3.66-7.75,6.11-13.99,6.11-3.76,0-6.94-.9-9.55-2.4-19.5,25.68-19.83,69.68,2.3,85.45,9.4,6.7,23.1,8.49,34.28,3.75,15.94-6.75,22.69-25.05,22.18-38.6Z"/><path class="cls-2" d="M420.31,265.8c-.24-.35-.49-.65-.72-.99-2.95,2.38-6.83,3.87-11.68,3.87-2.19,0-4.18-.31-5.98-.86-.06,.17-.11,.36-.18,.53-4.94,12.74-19.58,11.38-29.25,27.05-1.86,3.02-7.19,11.94-5.43,23.23,.15,.97,2.39,13.89,13.89,21.37,11.97,7.78,28.46,6.09,38.39-1.19,19.17-14.06,15.88-51,.96-73.01Z"/><path class="cls-2" d="M219.04,339.99c11.51-7.48,13.74-20.41,13.89-21.37,1.77-11.29-3.56-20.21-5.43-23.23-9.66-15.64-24.26-14.31-29.22-26.99-1.9,.62-4.02,.97-6.36,.97-4.97,0-8.92-1.57-11.9-4.04-.11,.16-.23,.3-.34,.47-14.92,22.01-18.21,58.95,.96,73.01,9.93,7.28,26.43,8.97,38.39,1.19Z"/><path class="cls-2" d="M381.38,363.66c-14.06-11.67-18.49-6.66-30.83-16.95-15.15-12.64-13.64-24.04-28.59-33.22-8.16-5.01-16.44-6.41-21.96-6.84-5.52,.43-13.79,1.83-21.96,6.84-14.95,9.18-13.44,20.57-28.59,33.22-12.34,10.29-16.77,5.28-30.83,16.95-7.61,6.32-19,15.78-18.77,28.98,.2,11.61,9.28,19.92,12.74,23.1,2.61,2.39,10.48,9.61,21.71,10.51,12.25,.99,17.31-6.44,33.57-12.04,7.07-2.43,17.77-5.03,32.13-4.58,14.37-.46,25.06,2.14,32.13,4.58,16.27,5.6,21.32,13.03,33.57,12.04,11.22-.91,19.1-8.12,21.71-10.51,3.46-3.17,12.54-11.49,12.74-23.1,.23-13.21-11.17-22.67-18.77-28.98Z"/><path class="cls-4" d="M257.52,185.81c3.38,10.71,12.06,13.22,20.86,22.89,2.34,2.57,13.88,15.27,14.5,31.79,.51,13.55-6.24,31.85-22.18,38.6-11.18,4.74-24.89,2.94-34.28-3.75-22.13-15.78-21.8-59.78-2.29-85.46,7.74-10.18,17.17-15.75,22.89-18.57-.74,3.61-1.27,8.86,.51,14.5Zm-57.48,55.96c-5.76,3.39-13.85,9.24-20.35,18.82-14.92,22.01-18.21,58.95,.96,73.01,9.93,7.28,26.43,8.97,38.39,1.19,11.51-7.48,13.74-20.41,13.89-21.37,1.77-11.29-3.56-20.21-5.43-23.23-9.67-15.66-24.31-14.3-29.25-27.05-1.65-4.25-2.58-11.01,1.78-21.37Zm181.34,114.86c-14.06-11.67-18.49-6.66-30.83-16.95-15.15-12.64-13.64-24.04-28.59-33.21-8.16-5.01-16.44-6.41-21.96-6.84-5.52,.43-13.79,1.83-21.96,6.84-14.95,9.18-13.44,20.57-28.59,33.21-12.34,10.29-16.77,5.28-30.83,16.95-7.61,6.32-19,15.78-18.77,28.98,.2,11.61,9.28,19.92,12.74,23.1,2.61,2.39,10.48,9.6,21.71,10.51,12.25,.99,17.31-6.44,33.57-12.04,7.07-2.43,17.77-5.03,32.13-4.58,14.37-.46,25.06,2.15,32.13,4.58,16.27,5.6,21.32,13.03,33.57,12.04,11.22-.91,19.1-8.12,21.71-10.51,3.46-3.17,12.54-11.49,12.74-23.1,.23-13.21-11.17-22.67-18.77-28.98Zm-38.9-170.82c-3.38,10.71-12.06,13.22-20.86,22.89-2.34,2.57-13.88,15.27-14.5,31.79-.51,13.55,6.24,31.85,22.18,38.6,11.18,4.74,24.89,2.94,34.28-3.75,22.13-15.78,21.8-59.78,2.29-85.46-7.74-10.18-17.17-15.75-22.89-18.57,.74,3.61,1.27,8.86-.51,14.5Zm59.26,77.32c-4.94,12.74-19.58,11.38-29.25,27.05-1.86,3.02-7.19,11.94-5.43,23.23,.15,.97,2.39,13.89,13.89,21.37,11.97,7.78,28.46,6.09,38.39-1.19,19.17-14.06,15.88-51,.96-73.01-6.5-9.58-14.59-15.43-20.35-18.82,4.36,10.36,3.43,17.12,1.78,21.37Z"/><path class="cls-3" d="M204.77,153.29c43.95-23.51,95.48-31.43,144.1-21.29,4.98,1.31,10.51,2.6,15.4,4.01l9.92,3.46c5.69,1.74,13.62,5.69,19.11,8.08,8.38,4.35,16.46,9.07,24.21,14.38,1.54,1.05,8.44,6.44,10.07,7.61,15.13,12.42,28.6,27.34,39.09,43.49,6.97,10.67,12.84,21.79,17.44,33.64,2.68,6.9-.75,14.67-7.65,17.35-5.8,2.26-12.2,.18-15.7-4.61-6.43-8.18-13.95-15.74-21.91-22.37-13.71-11.38-28.82-20.14-45.47-25.76-.85-.35-2.54-.88-3.42-1.09-5.6-1.76-11.57-2.92-17.23-4.02-4.02-.43-9.87-1.3-13.86-1.27l-6.82-.23-6.76,.38c-3.82,.06-9.35,1.04-13.17,1.54-24.51,4.89-48.68,16.86-65.62,35.09-19.47,23.73-54.49,27.19-78.22,7.72-30.19-23.99-25.67-73.27,8.13-91.49l8.36-4.62h0Z"/><path class="cls-5" d="M510.94,300c0,3-.07,6-.21,8.95-4.66-112.36-97.24-201.98-210.73-201.98S93.94,196.59,89.28,308.95c-.14-2.95-.21-5.95-.21-8.95,0-116.51,94.43-210.94,210.94-210.94s210.94,94.43,210.94,210.94Z"/></g></g></svg>