<?xml version="1.0" encoding="UTF-8"?><svg id="Layer_2" xmlns="http://www.w3.org/2000/svg" viewBox="0 0 600 600"><defs><style>.cls-1{fill:#26a4f9;}</style></defs><g id="Boards"><g><path class="cls-1" d="M600,300c0-40.68-8.1-79.46-22.78-114.82l-18.48,7.64-3.18,1.32c-14.02-33.8-34.53-64.23-60-89.7l16.56-16.56c-27.64-27.64-60.62-49.92-97.28-65.1l-7.66,18.48-1.32,3.18c-32.61-13.52-68.36-21-105.86-21V0c-40.68,0-79.44,8.1-114.82,22.78l7.64,18.48,1.32,3.18c-33.8,14.02-64.23,34.53-89.7,60l-2.42-2.42v-.02l-14.14-14.12c-27.64,27.6-49.9,60.62-65.1,97.3l18.48,7.64,3.18,1.32c-13.53,32.61-21,68.36-21,105.86H0c0,40.68,8.1,79.46,22.78,114.82l18.48-7.64,3.18-1.32c14.02,33.8,34.53,64.23,60,89.7l-2.42,2.42v.02l-14.14,14.12c27.64,27.64,60.62,49.92,97.28,65.1l7.66-18.48,1.32-3.18c32.61,13.52,68.36,21,105.86,21v23.44c40.68,0,79.44-8.1,114.82-22.78l-7.64-18.48-1.32-3.18c33.8-14.02,64.23-34.53,89.7-60l2.42,2.42v.02l14.14,14.12c27.64-27.6,49.9-60.62,65.1-97.3l-18.48-7.64-3.18-1.32c13.52-32.61,21-68.36,21-105.86h23.44Zm-300,215.63c-119.09,0-215.63-96.54-215.63-215.63S180.91,84.37,300,84.37s215.62,96.54,215.62,215.63-96.54,215.63-215.62,215.63Z"/><g><path class="cls-1" d="M257.01,176c-5.72,2.82-15.16,8.38-22.89,18.57-19.51,25.68-19.84,69.69,2.29,85.46,9.4,6.7,23.1,8.49,34.28,3.75,15.94-6.75,22.69-25.05,22.18-38.6-.62-16.53-12.16-29.22-14.5-31.79-8.8-9.67-17.48-12.19-20.86-22.89-1.78-5.63-1.25-10.89-.51-14.5Z"/><path class="cls-1" d="M200.04,246.46c-5.76,3.39-13.85,9.24-20.35,18.82-14.92,22.01-18.21,58.95,.96,73.01,9.93,7.28,26.43,8.97,38.39,1.19,11.51-7.48,13.74-20.41,13.89-21.37,1.77-11.29-3.56-20.21-5.43-23.23-9.67-15.66-24.31-14.3-29.25-27.05-1.65-4.25-2.58-11.01,1.78-21.37Z"/><path class="cls-1" d="M381.38,361.32c-14.06-11.67-18.49-6.66-30.83-16.95-15.15-12.64-13.64-24.04-28.59-33.21-8.16-5.01-16.44-6.41-21.96-6.84-5.52,.43-13.79,1.83-21.96,6.84-14.95,9.18-13.44,20.57-28.59,33.21-12.34,10.29-16.77,5.28-30.83,16.95-7.61,6.32-19,15.78-18.77,28.98,.2,11.61,9.28,19.92,12.74,23.1,2.61,2.39,10.48,9.6,21.71,10.51,12.25,.99,17.31-6.44,33.57-12.04,7.07-2.43,17.77-5.03,32.13-4.58,14.37-.46,25.06,2.15,32.13,4.58,16.27,5.6,21.32,13.03,33.57,12.04,11.22-.91,19.1-8.12,21.71-10.51,3.46-3.17,12.54-11.49,12.74-23.1,.23-13.21-11.17-22.67-18.77-28.98Z"/><path class="cls-1" d="M342.98,176c5.72,2.82,15.16,8.38,22.89,18.57,19.51,25.68,19.84,69.69-2.29,85.46-9.4,6.7-23.1,8.49-34.28,3.75-15.94-6.75-22.69-25.05-22.18-38.6,.62-16.53,12.16-29.22,14.5-31.79,8.8-9.67,17.48-12.19,20.86-22.89,1.78-5.63,1.25-10.89,.51-14.5Z"/><path class="cls-1" d="M399.96,246.46c5.76,3.39,13.85,9.24,20.35,18.82,14.92,22.01,18.21,58.95-.96,73.01-9.93,7.28-26.43,8.97-38.39,1.19-11.51-7.48-13.74-20.41-13.89-21.37-1.77-11.29,3.56-20.21,5.43-23.23,9.67-15.66,24.31-14.3,29.25-27.05,1.65-4.25,2.58-11.01-1.78-21.37Z"/></g></g></g></svg>