<?xml version="1.0" encoding="UTF-8"?>
<svg width="24" height="24" viewBox="0 0 24 24" fill="none" xmlns="http://www.w3.org/2000/svg">
  <path d="M12 2L14.5 4.5L17 2L19.5 4.5L22 2V7L19 10L17 14L12 16L7 14L5 10L2 7V2L4.5 4.5L7 2L9.5 4.5L12 2Z" fill="currentColor"/>
  <path d="M8 10C8 8.89543 8.89543 8 10 8C11.1046 8 12 8.89543 12 10C12 11.1046 11.1046 12 10 12C8.89543 12 8 11.1046 8 10Z" fill="currentColor"/>
  <path d="M12 10C12 8.89543 12.8954 8 14 8C15.1046 8 16 8.89543 16 10C16 11.1046 15.1046 12 14 12C12.8954 12 12 11.1046 12 10Z" fill="currentColor"/>
  <path d="M9 14H15L14 19H10L9 14Z" fill="currentColor"/>
</svg>
