<?xml version="1.0" encoding="UTF-8"?>
<svg width="24" height="24" viewBox="0 0 24 24" fill="none" xmlns="http://www.w3.org/2000/svg">
  <path d="M12 1L15.5 5L20 3L18.5 9L23 12L18.5 15L20 21L15.5 19L12 23L8.5 19L4 21L5.5 15L1 12L5.5 9L4 3L8.5 5L12 1Z" fill="currentColor"/>
  <path d="M12 6L14 9L16 8L15.5 11L17.5 12L15.5 13L16 16L14 15L12 18L10 15L8 16L8.5 13L6.5 12L8.5 11L8 8L10 9L12 6Z" fill="none" stroke="currentColor" stroke-width="1"/>
  <path d="M12 8L13 10L14 9.5L13.75 11.25L15 12L13.75 12.75L14 14.5L13 14L12 15.5L11 14L10 14.5L10.25 12.75L9 12L10.25 11.25L10 9.5L11 10L12 8Z" fill="currentColor"/>
</svg>
