<?xml version="1.0" encoding="UTF-8"?>
<svg width="24" height="24" viewBox="0 0 24 24" fill="none" xmlns="http://www.w3.org/2000/svg">
  <path d="M12 2C7.58 2 4 5.58 4 10C4 12.03 4.76 13.87 6 15.28V17L4 21L8 19L12 21L16 19L20 21L18 17V15.28C19.24 13.87 20 12.03 20 10C20 5.58 16.42 2 12 2Z" fill="currentColor"/>
  <path d="M9 9.5L7.5 11L9 12.5L7.5 14L9 15.5" stroke="currentColor" stroke-width="1.5" stroke-linecap="round"/>
  <path d="M15 9.5L16.5 11L15 12.5L16.5 14L15 15.5" stroke="currentColor" stroke-width="1.5" stroke-linecap="round"/>
  <path d="M10 16H14" stroke="currentColor" stroke-width="1.5" stroke-linecap="round"/>
  <path d="M9.5 8C10.3284 8 11 7.32843 11 6.5C11 5.67157 10.3284 5 9.5 5C8.67157 5 8 5.67157 8 6.5C8 7.32843 8.67157 8 9.5 8Z" fill="currentColor"/>
  <path d="M14.5 8C15.3284 8 16 7.32843 16 6.5C16 5.67157 15.3284 5 14.5 5C13.6716 5 13 5.67157 13 6.5C13 7.32843 13.6716 8 14.5 8Z" fill="currentColor"/>
</svg>
