<?xml version="1.0" encoding="UTF-8"?>
<svg xmlns="http://www.w3.org/2000/svg" xmlns:xlink="http://www.w3.org/1999/xlink" viewBox="0 0 203.91 182.48">
  <defs>
    <style>
      .cls-1 {
        fill: url(#linear-gradient-2);
      }

      .cls-2 {
        fill: url(#linear-gradient-15);
      }

      .cls-3 {
        fill: url(#linear-gradient-14);
      }

      .cls-4 {
        fill: url(#linear-gradient-6);
      }

      .cls-5 {
        isolation: isolate;
      }

      .cls-6 {
        fill: url(#linear-gradient-11);
      }

      .cls-7 {
        fill: url(#linear-gradient-10);
      }

      .cls-8 {
        fill: url(#linear-gradient-5);
      }

      .cls-9 {
        mix-blend-mode: color-dodge;
      }

      .cls-10 {
        fill: url(#linear-gradient-7);
      }

      .cls-11 {
        fill: url(#linear-gradient-9);
      }

      .cls-12 {
        fill: url(#linear-gradient-3);
      }

      .cls-13 {
        fill: url(#linear-gradient);
      }

      .cls-14 {
        fill: url(#linear-gradient-4);
      }

      .cls-15 {
        fill: url(#linear-gradient-8);
      }

      .cls-16 {
        fill: url(#linear-gradient-12);
      }

      .cls-17 {
        fill: url(#linear-gradient-13);
      }
    </style>
    <linearGradient id="linear-gradient" x1="80.13" y1="-1.09" x2="79.47" y2="47.57" gradientUnits="userSpaceOnUse">
      <stop offset="0" stop-color="#dc9200"/>
      <stop offset="1" stop-color="#ffdf00"/>
    </linearGradient>
    <linearGradient id="linear-gradient-2" x1="130.94" y1="-.4" x2="130.28" y2="48.26" xlink:href="#linear-gradient"/>
    <linearGradient id="linear-gradient-3" x1="105" y1="-.75" x2="104.34" y2="47.91" gradientUnits="userSpaceOnUse">
      <stop offset="0" stop-color="#b668a1"/>
      <stop offset="1" stop-color="#743282"/>
    </linearGradient>
    <linearGradient id="linear-gradient-4" x1="131.17" y1="-.4" x2="130.51" y2="48.26" xlink:href="#linear-gradient-3"/>
    <linearGradient id="linear-gradient-5" x1="80.71" y1="-1.08" x2="80.05" y2="47.58" xlink:href="#linear-gradient-3"/>
    <linearGradient id="linear-gradient-6" x1="79.97" y1="10.73" x2="78.73" y2="101.99" xlink:href="#linear-gradient"/>
    <linearGradient id="linear-gradient-7" x1="130.78" y1="11.18" x2="129.54" y2="102.46" xlink:href="#linear-gradient"/>
    <linearGradient id="linear-gradient-8" x1="104.99" y1="0" x2="104.88" y2="8.47" xlink:href="#linear-gradient-3"/>
    <linearGradient id="linear-gradient-9" x1="130.23" y1="68.94" x2="129.95" y2="89.75" xlink:href="#linear-gradient-3"/>
    <linearGradient id="linear-gradient-10" x1="79.76" y1="68.92" x2="79.48" y2="89.48" xlink:href="#linear-gradient-3"/>
    <linearGradient id="linear-gradient-11" x1="79.5" y1="67.42" x2="79" y2="17.14" xlink:href="#linear-gradient"/>
    <linearGradient id="linear-gradient-12" x1="130.46" y1="66.92" x2="129.97" y2="16.63" xlink:href="#linear-gradient"/>
    <linearGradient id="linear-gradient-13" x1="104.99" y1="0" x2="104.88" y2="8.47" xlink:href="#linear-gradient-3"/>
    <linearGradient id="linear-gradient-14" x1="130.23" y1="68.94" x2="129.95" y2="89.75" xlink:href="#linear-gradient-3"/>
    <linearGradient id="linear-gradient-15" x1="79.76" y1="68.92" x2="79.48" y2="89.48" xlink:href="#linear-gradient-3"/>
  </defs>
  <g class="cls-5">
    <g id="Layer_1" data-name="Layer 1">
      <g>
        <path class="cls-13" d="m55.31,53.53v-6.64c0-2.22.01-4.43-.01-6.64,0-.5.12-.9.42-1.3,5.16-6.74,10.31-13.49,15.47-20.23,1.8-2.36,3.6-4.71,5.39-7.08.25-.33.51-.45.91-.45,8.34-.05,16.68-.11,25.01-.17.15,0,.29.02.48.03v91.06c-.21.01-.41.04-.62.04-3.48,0-6.97-.01-10.45.02-.58,0-.72-.17-.72-.73,0-6.04-.03-12.08-.04-18.12,0-1.52,0-3.04,0-4.57.02-8.12.04-16.25.05-24.37q0-.86-.89-.86c-1.27,0-2.54.02-3.8-.01-.45-.01-.74.13-1.02.49-4.88,6.39-9.78,12.75-14.67,19.13-2.03,2.64-4.06,5.28-6.09,7.92-.11.15-.25.29-.41.48-2.92-3.13-5.8-6.21-8.71-9.34,4.74-6.2,9.46-12.37,14.28-18.68-4.96.02-9.74.02-14.59.02Zm16.59-13.53h19.15c1.67,0,1.64,0,1.78-1.69.06-.71-.13-1.19-.67-1.67-2.7-2.43-5.37-4.89-8.05-7.34-1.26-1.16-2.53-2.31-3.85-3.51-2.78,4.72-5.52,9.39-8.36,14.22Z"/>
        <path class="cls-1" d="m154.33,53.52h-14.6c4.82,6.3,9.53,12.46,14.29,18.69-2.89,3.1-5.77,6.19-8.71,9.34-.19-.22-.36-.4-.51-.6-6.89-8.96-13.77-17.93-20.65-26.9-.29-.38-.58-.55-1.07-.54-1.38.03-2.75.03-4.13,0-.42,0-.55.15-.55.56.01,6.15,0,12.29,0,18.44,0,3.16,0,6.32,0,9.47,0,.43.05.86.05,1.29-.02,6.06-.04,12.12-.05,18.18,0,.37.06.72-.53.71-3.65-.02-7.31-.01-10.96-.02-.06,0-.13-.02-.26-.04V11.05c.61,0,1.22,0,1.83,0,7.84.05,15.69.11,23.53.15.51,0,.81.17,1.11.56,6.87,9.03,13.77,18.04,20.67,27.05.37.49.54.97.54,1.58-.02,4.1-.01,8.21-.01,12.31,0,.24,0,.47,0,.81Zm-15.43-13.52c-2.85-4.84-5.59-9.5-8.36-14.21-1.48,1.34-2.88,2.62-4.33,3.93-.36-.87-.8-1.59-.61-2.49.17-.82.27-1.66.32-2.49.02-.3-.1-.68-.29-.9-1.57-1.74-3.16-3.45-4.74-5.18-.12-.13-.19-.31-.28-.46-.06.05-.12.11-.18.16.76,1.98,1.53,3.95,2.26,5.93.1.25.16.63.04.83-.77,1.25-.74,2.65-.9,4.03-.13,1.21.07,2.23.95,3.1.1.1.15.24.24.39-1.23,1.12-2.46,2.21-3.64,3.33-1.79,1.72-1.44.86-1.33,3.34.03.57.22.72.77.71,2.34-.03,4.69.06,7.03-.04,1.11-.05,1.82.26,2.33,1.23.2.38.33.69.27,1.13-.2,1.31-.36,2.64-.52,3.96-.08.62-.13,1.24-.2,1.85,1.64-1.79,3.16-3.59,4.66-5.42.14-.17.19-.46.18-.69-.03-.65-.11-1.31-.18-2.04,2.17,0,4.24,0,6.5,0Z"/>
        <path class="cls-12" d="m102.36,8.07c-7.74-.02-15.47.02-23.2.04-.08,0-.16-.01-.42-.04,6.51-4.41,13.53-6.99,21.19-7.81,12.28-1.32,23.32,2.42,31.09,7.85h-.74c-7.74-.02-15.47-.06-23.2-.05"/>
        <path class="cls-14" d="m131.78,68.96c2.37,3.07,4.66,6.04,6.98,9.04-4.9,5.19-10.59,9.04-17.25,11.64-.01-.24-.03-.42-.03-.6,0-3.7,0-7.39-.01-11.09,0-.38.09-.62.44-.82,3.69-2.03,6.9-4.65,9.65-7.84.08-.08.13-.17.23-.33Z"/>
        <path class="cls-8" d="m88.17,89.6c-6.65-2.61-12.32-6.47-17.22-11.67,2.31-2.99,4.6-5.97,6.98-9.04.14.19.24.35.37.49,2.67,3.08,5.77,5.63,9.33,7.62.4.23.57.46.56.94-.02,3.84-.01,7.68-.01,11.66Z"/>
      </g>
      <g>
        <g class="cls-9">
          <path class="cls-4" d="m101.69,12.34v88.51h-1.64s-2.32,0-2.32,0c-1.74,0-3.47,0-5.22.01,0-4.13-.01-8.25-.03-12.38l-.02-5.17c0-1.52,0-3.04,0-4.57l.03-12.17.03-12.2c0-1.58-.59-2.16-2.19-2.16h-1.04s-1.03,0-1.03,0c-.57,0-1.13,0-1.69-.02h-.06s-.02,0-.02,0c-.83,0-1.48.33-2.01,1.01-4.14,5.42-8.3,10.82-12.45,16.23l-2.22,2.89c-1.84,2.4-3.69,4.8-5.54,7.21l-3.35-3.59-3.6-3.85,8.52-11.14,5.1-6.67,1.6-2.1h-2.64c-4.51.02-8.88.02-13.28.02v-7c0-1.67,0-3.33-.01-5,0-.21.04-.33.16-.49,4.08-5.33,8.15-10.66,12.22-15.99l3.24-4.25.61-.79c1.58-2.06,3.16-4.13,4.74-6.22,8.04-.05,16.08-.1,24.13-.16m-32.07,28.97h21.42c2.3,0,2.87-.52,3.07-2.79v-.1c.1-1.12-.25-1.99-1.09-2.75-1.94-1.74-3.9-3.54-5.8-5.28l-2.24-2.05c-.65-.6-1.31-1.19-1.97-1.79l-1.89-1.72-1.18-1.08-.81,1.38-4.51,7.67-3.85,6.55-1.15,1.96m32.88-30.27c-8.34.06-16.68.12-25.01.17-.41,0-.67.12-.91.45-1.79,2.37-3.59,4.72-5.39,7.08-5.15,6.75-10.3,13.49-15.47,20.23-.3.4-.43.8-.42,1.3.02,2.22.01,4.43.01,6.64v6.64c4.85,0,9.63,0,14.59-.02-4.83,6.31-9.54,12.47-14.28,18.68,2.92,3.13,5.8,6.21,8.71,9.34.17-.19.3-.33.41-.48,2.03-2.64,4.06-5.28,6.09-7.92,4.9-6.37,9.79-12.74,14.67-19.13.27-.35.55-.5.98-.5.02,0,.03,0,.05,0,.57.01,1.15.02,1.73.02.69,0,1.38,0,2.08,0q.89,0,.89.86c-.02,8.12-.04,16.25-.05,24.37,0,1.53,0,3.05,0,4.57.02,6.04.04,12.08.04,18.12,0,.55.14.73.69.73,0,0,.02,0,.02,0,1.93-.01,3.87-.02,5.8-.02,1.55,0,3.1,0,4.65,0,.2,0,.41-.03.62-.04V11.06c-.19-.01-.34-.03-.48-.03h0Zm-30.61,28.97c2.84-4.83,5.58-9.49,8.36-14.22,1.32,1.2,2.59,2.36,3.85,3.51,2.68,2.45,5.35,4.91,8.05,7.34.53.48.73.96.67,1.67-.15,1.69-.11,1.69-1.78,1.69h-19.15Z"/>
        </g>
        <g class="cls-9">
          <path class="cls-10" d="m107.96,12.35c.17,0,.35,0,.53,0l4.65.03c6.29.04,12.59.09,18.89.12.01,0,.03,0,.04,0,.01.01.03.03.04.05,6.38,8.38,13.14,17.23,20.67,27.05.2.27.27.47.27.79-.02,3.08-.01,6.16-.01,9.24v2.58s-13.3,0-13.3,0h-2.63l1.6,2.09,5.08,6.64c2.86,3.73,5.69,7.44,8.54,11.17l-3.02,3.23-3.93,4.21c-6.73-8.76-13.47-17.53-20.19-26.31-.54-.7-1.21-1.04-2.06-1.04h-.06s-.02,0-.02,0c-.68.02-1.36.02-2.03.02s-1.36,0-2.08-.02c-.58,0-1.04.18-1.37.55-.46.5-.46,1.11-.46,1.32,0,4.61,0,9.22,0,13.83v4.61c0,3.16,0,6.32,0,9.47,0,.24.01.48.03.72.01.19.02.38.02.57l-.03,9.1-.03,8.49c-2.18-.01-4.36-.01-6.54-.01-.87,0-1.74,0-2.61,0V12.35m13.5,12.37c-.64,1.19-.75,2.42-.85,3.52-.02.25-.05.51-.08.77-.15,1.37.09,2.5.73,3.46-.08.08-.17.15-.25.23-.84.76-1.71,1.54-2.54,2.34-.3.29-.53.5-.72.66-1.03.92-1.19,1.32-1.07,2.68.02.25.05.57.07,1,.06,1.24.8,1.95,2.04,1.95h.04s0,0,0,0c.34,0,.69,0,1.03,0,.53,0,1.06,0,1.58,0,.53,0,1.07,0,1.6,0,1.14,0,2.02-.02,2.86-.05.05,0,.11,0,.16,0,.59,0,.76.14.97.54.14.27.14.3.13.32-.17,1.12-.31,2.26-.44,3.35l-.08.65c-.06.46-.1.92-.15,1.38l-.05.49-.41,3.92,2.66-2.91c1.82-1.98,3.47-3.97,4.71-5.48.47-.57.49-1.29.47-1.57,0-.23-.02-.46-.04-.68,1.67,0,3.31,0,5.07,0h2.27l-1.15-1.96-4.57-7.75-3.8-6.45-.81-1.38-1.18,1.08c-.94.86-1.85,1.68-2.76,2.51.15-.76.26-1.59.31-2.5.05-.66-.2-1.39-.62-1.86-1.05-1.17-2.11-2.32-3.17-3.47-.52-.56-.96-1.12-1.47-1.69-.01-.02-.08-.12-.09-.14-.84-1.44-3.69-3.06-3.69-3.06l.55,2.69.15.63.34.88.64,1.66c.54,1.41,1.08,2.81,1.61,4.24m-13.58-13.67c-.41,0-.82,0-1.22,0v91.07c.13.02.19.04.26.04,3.66,0,7.31,0,10.96.02,0,0,0,0,.01,0,.57,0,.51-.34.51-.71.02-6.06.04-12.12.05-18.18,0-.43-.05-.86-.05-1.29,0-3.16,0-6.32,0-9.47,0-6.15,0-12.29,0-18.44,0-.41.12-.56.53-.56,0,0,.01,0,.02,0,.69.01,1.38.02,2.06.02s1.37,0,2.06-.02c.01,0,.03,0,.04,0,.46,0,.75.17,1.03.54,6.87,8.97,13.76,17.94,20.65,26.9.15.19.32.38.51.6,2.94-3.16,5.83-6.25,8.71-9.34-4.76-6.22-9.47-12.38-14.29-18.69h14.6c0-.34,0-.57,0-.81,0-4.1-.01-8.21.01-12.31,0-.61-.17-1.09-.54-1.58-6.9-9.01-13.79-18.03-20.67-27.05-.3-.39-.6-.56-1.11-.56-7.85-.04-15.69-.1-23.53-.15-.2,0-.41,0-.61,0h0Zm10.91,28.96c-.53,0-.71-.15-.74-.71-.11-2.47-.46-1.62,1.33-3.34,1.18-1.12,2.4-2.21,3.64-3.33-.09-.15-.14-.29-.24-.39-.88-.87-1.08-1.89-.95-3.1.16-1.38.13-2.78.9-4.03.12-.2.06-.58-.04-.83-.74-1.98-1.51-3.95-2.26-5.93.06-.05.12-.1.18-.16.09.16.16.33.28.46,1.58,1.73,3.18,3.44,4.74,5.18.19.22.31.6.29.9-.05.83-.15,1.67-.32,2.49-.19.9.25,1.62.61,2.49,1.45-1.31,2.85-2.59,4.33-3.93,2.77,4.71,5.52,9.37,8.36,14.21-2.26,0-4.34,0-6.5,0,.07.73.15,1.39.18,2.04.01.23-.04.52-.18.69-1.5,1.82-3.02,3.63-4.66,5.42.06-.61.12-1.23.2-1.85.16-1.32.31-2.65.52-3.96.06-.44-.07-.75-.27-1.13-.48-.91-1.13-1.24-2.12-1.24-.07,0-.14,0-.21,0-.93.04-1.87.05-2.8.05-1.06,0-2.12-.01-3.18-.01-.35,0-.7,0-1.04,0,0,0-.02,0-.03,0h0Z"/>
        </g>
        <g class="cls-9">
          <path class="cls-15" d="m104.9,1.3c7.56,0,15.06,1.93,21.55,5.5h-1.97c-4.87-.02-9.73-.04-14.6-.04h-2.81s-4.72,0-4.72,0c-1.3,0-2.61,0-3.91,0-4.65,0-9.29.02-13.93.03h-1.2c5.23-2.87,10.75-4.59,16.76-5.24,1.6-.17,3.23-.26,4.83-.26M104.9,0C103.27,0,101.61.09,99.93.27c-7.65.82-14.67,3.41-21.19,7.81.26.03.34.04.42.04,6.43-.02,12.86-.05,19.29-.05,1.3,0,2.61,0,3.91,0h4.72c.93,0,1.87,0,2.8,0,6.8,0,13.6.03,20.4.05h.74C124.32,3.43,115.18,0,104.9,0h0Z"/>
        </g>
        <g class="cls-9">
          <path class="cls-11" d="m131.73,71.03l2.49,3.23,2.81,3.64c-4.18,4.23-8.87,7.46-14.27,9.8v-.89c0-2.88,0-5.76,0-8.68,3.34-1.87,6.35-4.25,8.97-7.11m.04-2.07c-.1.16-.16.25-.23.33-2.75,3.19-5.95,5.82-9.65,7.84-.36.2-.44.44-.44.82.02,3.7.01,7.39.01,11.09,0,.18.02.36.03.6,6.66-2.59,12.36-6.45,17.25-11.64-2.32-3-4.6-5.97-6.98-9.04h0Z"/>
        </g>
        <g class="cls-9">
          <path class="cls-7" d="m77.96,70.97c2.62,2.86,5.61,5.25,8.92,7.11-.02,2.83-.01,5.66-.01,8.55v1.03c-5.36-2.35-10.04-5.58-14.21-9.82l1.65-2.14c1.21-1.57,2.42-3.14,3.65-4.73m-.04-2.08c-2.38,3.08-4.67,6.05-6.98,9.04,4.9,5.2,10.57,9.06,17.22,11.67,0-3.98-.01-7.82.01-11.66,0-.48-.16-.72-.56-.94-3.56-1.99-6.65-4.55-9.33-7.62-.12-.14-.23-.3-.37-.49h0Z"/>
        </g>
      </g>
      <g>
        <path class="cls-6" d="m101.99,12.04v89.12h-1.94s-2.32,0-2.32,0c-1.84,0-3.67,0-5.52.02,0-4.23-.01-8.45-.03-12.68l-.02-5.17c0-1.52,0-3.04,0-4.57l.03-12.18.03-12.19c0-1.41-.46-1.86-1.89-1.86h-1.04s-1.04,0-1.04,0c-.57,0-1.14,0-1.7-.02h-.06s-.01,0-.01,0c-.73,0-1.31.29-1.77.89-4.15,5.42-8.3,10.83-12.45,16.24l-2.22,2.89c-1.92,2.5-3.83,4.99-5.76,7.49l-3.52-3.78-3.83-4.11,8.77-11.46,5-6.54,1.23-1.61h-2.03c-4.62.02-9.08.02-13.59.02v-7.3c0-1.66,0-3.33-.01-5,0-.28.06-.46.22-.68,4.1-5.35,8.19-10.7,12.28-16.06l3.19-4.17.61-.8c1.6-2.09,3.2-4.18,4.78-6.29.02-.02.03-.04.03-.04.02,0,.04,0,.09,0,8.16-.05,16.33-.11,24.49-.16m-31.84,28.97h20.9c2.15,0,2.59-.4,2.77-2.51v-.1c.09-1.02-.22-1.81-.99-2.5-1.94-1.75-3.9-3.54-5.8-5.28l-2.24-2.05c-.65-.6-1.31-1.19-1.97-1.79l-1.89-1.72-.91-.83-.63,1.06-4.52,7.69-3.84,6.53-.89,1.51m32.36-29.97c-8.34.06-16.68.12-25.01.17-.41,0-.67.12-.91.45-1.79,2.37-3.59,4.72-5.39,7.08-5.15,6.75-10.3,13.49-15.47,20.23-.3.4-.43.8-.42,1.3.02,2.22.01,4.43.01,6.64v6.64c4.85,0,9.63,0,14.59-.02-4.83,6.31-9.54,12.47-14.28,18.68,2.92,3.13,5.8,6.21,8.71,9.34.17-.19.3-.33.41-.48,2.03-2.64,4.06-5.28,6.09-7.92,4.9-6.37,9.79-12.74,14.67-19.13.27-.35.55-.5.98-.5.02,0,.03,0,.05,0,.57.01,1.15.02,1.72.02.69,0,1.39,0,2.08,0q.89,0,.89.86c-.02,8.12-.04,16.25-.05,24.37,0,1.53,0,3.05,0,4.57.02,6.04.04,12.08.04,18.12,0,.55.14.73.69.73,0,0,.02,0,.02,0,1.94-.01,3.87-.02,5.81-.02,1.55,0,3.09,0,4.64,0,.2,0,.41-.03.62-.04V11.06c-.19-.01-.34-.03-.48-.03h0Zm-30.61,28.97c2.84-4.83,5.58-9.49,8.36-14.22,1.32,1.2,2.59,2.36,3.85,3.51,2.68,2.45,5.35,4.91,8.05,7.34.53.48.73.96.67,1.67-.15,1.69-.11,1.69-1.78,1.69h-19.15Z"/>
        <path class="cls-16" d="m107.88,12.05c.2,0,.4,0,.61,0l4.65.03c6.29.04,12.59.09,18.89.12.17,0,.19,0,.32.17,6.38,8.38,13.14,17.23,20.67,27.05.24.32.33.59.33.97-.02,3.08-.01,6.16-.01,9.24v2.88s-13.6,0-13.6,0h-2.02l1.23,1.61,5.08,6.64c2.91,3.8,5.79,7.58,8.69,11.37l-3.19,3.42-4.17,4.47c-6.81-8.86-13.61-17.72-20.41-26.59-.31-.4-.83-.93-1.82-.93h-.05s-.01,0-.01,0c-.68.02-1.36.02-2.04.02s-1.36,0-2.08-.02c-.49,0-.88.15-1.15.45-.38.41-.38.94-.38,1.11,0,4.61,0,9.22,0,13.83v4.61c0,3.16,0,6.32,0,9.47,0,.23.01.47.03.7.01.2.02.39.02.58l-.03,9.1-.03,8.79c-2.28-.01-4.56-.01-6.84-.01-.97,0-1.94,0-2.91,0V12.05h.22m13.9,12.7c-.66,1.17-.77,2.41-.87,3.51-.02.26-.05.52-.08.78-.16,1.42.11,2.53.84,3.47-.15.14-.3.27-.45.41-.84.76-1.7,1.54-2.53,2.33-.3.29-.54.5-.73.67-.96.86-1.08,1.16-.98,2.43.02.25.05.58.07,1.01.05,1.07.67,1.66,1.74,1.66h.03s0,0,0,0c.34,0,.69,0,1.03,0,.53,0,1.06,0,1.58,0,.53,0,1.07,0,1.6,0,1.13,0,2.01-.02,2.84-.05.06,0,.11,0,.17,0,.66,0,.95.16,1.24.7.17.32.18.4.16.51-.17,1.11-.31,2.25-.44,3.34l-.08.65c-.06.46-.1.92-.15,1.38l-.05.49-.32,3.02,2.05-2.24c1.81-1.98,3.46-3.96,4.7-5.46.4-.49.42-1.12.41-1.37-.01-.33-.04-.66-.07-1,1.78,0,3.53,0,5.4,0h1.75l-.89-1.51-4.57-7.75-3.8-6.45-.62-1.06-.91.83c-1.11,1.01-2.19,1.99-3.27,2.97-.05-.21-.07-.39-.03-.58.17-.79.28-1.66.34-2.62.04-.57-.18-1.23-.54-1.64-1.05-1.16-2.11-2.31-3.17-3.46-.53-.57-1.06-1.15-1.57-1.7-.03-.04-.04-.06-.06-.1-.03-.06-.13-.19-.17-.25l-.81-.88-1.87-1.42.5,2.68.26.67.64,1.66c.55,1.42,1.09,2.84,1.63,4.28.01.03.02.07.03.11m-13.9-13.7c-.41,0-.82,0-1.22,0v91.07c.13.02.19.04.26.04,3.66,0,7.31,0,10.96.02,0,0,0,0,.01,0,.57,0,.51-.34.51-.71.02-6.06.04-12.12.05-18.18,0-.43-.05-.86-.05-1.29,0-3.16,0-6.32,0-9.47,0-6.15,0-12.29,0-18.44,0-.41.12-.56.53-.56,0,0,.01,0,.02,0,.69.01,1.38.02,2.06.02s1.37,0,2.06-.02c.01,0,.03,0,.04,0,.46,0,.75.17,1.03.54,6.87,8.97,13.76,17.94,20.65,26.9.15.19.32.38.51.6,2.94-3.16,5.83-6.25,8.71-9.34-4.76-6.22-9.47-12.38-14.29-18.69h14.6c0-.34,0-.57,0-.81,0-4.1-.01-8.21.01-12.31,0-.61-.17-1.09-.54-1.58-6.9-9.01-13.79-18.03-20.67-27.05-.3-.39-.6-.56-1.11-.56-7.85-.04-15.69-.1-23.53-.15-.2,0-.41,0-.61,0h0Zm10.91,28.96c-.53,0-.71-.15-.74-.71-.11-2.47-.46-1.62,1.33-3.34,1.18-1.12,2.4-2.21,3.64-3.33-.09-.15-.14-.29-.24-.39-.88-.87-1.08-1.89-.95-3.1.16-1.38.13-2.78.9-4.03.12-.2.06-.58-.04-.83-.74-1.98-1.51-3.95-2.26-5.93.06-.05.12-.1.18-.16.09.16.16.33.28.46,1.58,1.73,3.18,3.44,4.74,5.18.19.22.31.6.29.9-.05.83-.15,1.67-.32,2.49-.19.9.25,1.62.61,2.49,1.45-1.31,2.85-2.59,4.33-3.93,2.77,4.71,5.52,9.37,8.36,14.21-2.26,0-4.34,0-6.5,0,.07.73.15,1.39.18,2.04.01.23-.04.52-.18.69-1.5,1.82-3.02,3.63-4.66,5.42.06-.61.12-1.23.2-1.85.16-1.32.31-2.65.52-3.96.06-.44-.07-.75-.27-1.13-.48-.91-1.13-1.24-2.12-1.24-.07,0-.14,0-.21,0-.93.04-1.87.05-2.8.05-1.06,0-2.12-.01-3.18-.01-.35,0-.7,0-1.04,0,0,0-.02,0-.03,0h0Z"/>
        <path class="cls-17" d="m104.9,1c8,0,15.93,2.15,22.69,6.11h-3.11c-4.87-.03-9.73-.04-14.6-.04h-2.81s-4.72,0-4.72,0c-1.3,0-2.61,0-3.91,0-4.65,0-9.29.02-13.93.03h-2.35c5.56-3.23,11.44-5.15,17.87-5.84,1.61-.17,3.25-.26,4.86-.26M104.9,0C103.27,0,101.61.09,99.93.27c-7.65.82-14.67,3.41-21.19,7.81.26.03.34.04.42.04,6.43-.02,12.86-.05,19.29-.05,1.3,0,2.61,0,3.91,0h4.72c.93,0,1.87,0,2.8,0,6.8,0,13.6.03,20.4.05h.74C124.32,3.43,115.18,0,104.9,0h0Z"/>
        <path class="cls-3" d="m131.75,70.57l2.71,3.52,2.97,3.85c-4.36,4.46-9.27,7.82-14.97,10.23v-1.35c0-2.95,0-5.9-.01-8.85,3.47-1.92,6.6-4.41,9.29-7.4m.02-1.61c-.1.16-.16.25-.23.33-2.75,3.19-5.95,5.82-9.65,7.84-.36.2-.44.44-.44.82.02,3.7.01,7.39.01,11.09,0,.18.02.36.03.6,6.66-2.59,12.36-6.45,17.25-11.64-2.32-3-4.6-5.97-6.98-9.04h0Z"/>
        <path class="cls-2" d="m77.95,70.5c2.68,2.98,5.77,5.46,9.18,7.38.02.01.04.02.05.03,0,0,0,.02,0,.03-.02,2.87-.01,5.75-.01,8.69v1.48c-5.66-2.42-10.55-5.78-14.91-10.25l1.81-2.34c1.28-1.66,2.56-3.32,3.87-5.02m-.02-1.61c-2.38,3.08-4.67,6.05-6.98,9.04,4.9,5.2,10.57,9.06,17.22,11.67,0-3.98-.01-7.82.01-11.66,0-.48-.16-.72-.56-.94-3.56-1.99-6.65-4.55-9.33-7.62-.12-.14-.23-.3-.37-.49h0Z"/>
      </g>
    </g>
  </g>
</svg>